<svg width="358" height="486" viewBox="0 0 358 486" fill="none" xmlns="http://www.w3.org/2000/svg">
<mask id="mask0_509_692" style="mask-type:alpha" maskUnits="userSpaceOnUse" x="0" y="0" width="358" height="486">
<rect width="358" height="486" fill="white"/>
</mask>
<g mask="url(#mask0_509_692)">
<mask id="mask1_509_692" style="mask-type:luminance" maskUnits="userSpaceOnUse" x="22" y="21" width="315" height="466">
<path d="M22 21H336.151V486.219H22V21Z" fill="white"/>
</mask>
<g mask="url(#mask1_509_692)">
<path d="M22 21H336.151V486.219H22V21Z" fill="#EBEBEB"/>
</g>
<path fill-rule="evenodd" clip-rule="evenodd" d="M276.25 218.849C276.25 236.229 261.646 250.714 244.12 250.714C226.594 250.714 213.448 234.781 213.448 218.849C213.448 201.469 226.594 186.984 244.12 186.984C261.646 186.984 276.25 201.469 276.25 218.849ZM203.224 253.609C195.922 242.021 184.235 242.021 176.932 253.609L175.469 255.057C169.63 246.37 163.787 236.229 159.406 227.542C149.182 210.162 133.115 210.162 122.891 227.542C112.667 244.922 96.5991 272.438 86.3752 289.818C76.1512 307.198 84.9168 320.234 105.365 320.234H217.828C232.432 320.234 238.276 311.542 230.974 298.51C223.672 285.474 211.985 266.646 203.224 253.609Z" fill="#D6D6D6"/>
<mask id="mask2_509_692" style="mask-type:luminance" maskUnits="userSpaceOnUse" x="0" y="0" width="359" height="738">
<path d="M0 0H358.172V737.349H0V0Z" fill="white"/>
</mask>
<g mask="url(#mask2_509_692)">
<path fill-rule="evenodd" clip-rule="evenodd" d="M356.505 163.297H355.26V47.3646C355.26 21.1875 334.068 0 307.891 0H51.1042C24.9271 0 3.73958 21.1875 3.73958 47.3646V94.3177H1.66146C1.24479 94.3177 0.828125 94.7344 0.828125 95.151V120.083C0.828125 120.495 1.24479 120.911 1.66146 120.911H3.73958V146.672H2.48958C1.57812 146.672 0.828125 147.422 0.828125 148.339V194.875C0.828125 195.786 1.57812 196.536 2.48958 196.536H3.73958V211.495H1.66146C0.744792 211.495 0 212.24 0 213.156V259.693C0 260.609 0.744792 261.354 1.66146 261.354H3.73958V689.984C3.73958 716.161 24.9271 737.349 51.1042 737.349H307.891C334.068 737.349 355.26 716.161 355.26 689.984V243.073H356.505C357.422 243.073 358.172 242.323 358.172 241.411V164.958C358.172 164.042 357.422 163.297 356.505 163.297ZM221.469 21.1875C224.875 21.1875 227.698 24.0156 227.698 27.4219C227.698 30.8281 224.875 33.6563 221.469 33.6563C218.057 33.6563 215.234 30.8281 215.234 27.4219C215.234 24.0156 218.057 21.1875 221.469 21.1875ZM156.229 24.9271H201.938C203.516 24.9271 204.844 26.2604 204.844 27.8385C204.844 29.4167 203.516 30.7448 201.938 30.7448H156.229C154.651 30.7448 153.323 29.4167 153.323 27.8385C153.323 26.2604 154.651 24.9271 156.229 24.9271ZM334.901 686.245C334.901 703.693 320.776 717.823 303.323 717.823H54.8438C37.3958 717.823 23.2656 703.693 23.2656 686.245V51.9375C23.2656 34.4844 37.3958 20.3594 54.8438 20.3594H88.3385C90.4948 20.8594 92.1615 22.5208 92.6563 24.6823C92.8229 25.2604 92.9063 26.0938 93.0729 27.0052C93.4063 28.75 93.8229 30.9115 94.401 33.1563C95.151 35.9844 98.5573 45.2917 109.776 45.375C114.016 45.4531 140.526 45.4531 162.047 45.4531C201.604 45.4531 246.979 45.4531 249.141 45.375C260.443 45.2917 263.766 35.9844 264.516 33.1563C265.094 30.9948 265.51 28.75 265.844 27.0052C266.01 26.0938 266.177 25.3438 266.26 24.6823C266.672 22.5208 268.417 20.776 270.578 20.3594H303.323C320.776 20.3594 334.901 34.4844 334.901 51.9375V686.245Z" fill="#444444"/>
</g>
</g>
</svg>
