<svg width="49" height="49" viewBox="0 0 49 49" fill="none" xmlns="http://www.w3.org/2000/svg">
<mask id="mask0_509_683" style="mask-type:luminance" maskUnits="userSpaceOnUse" x="0" y="0" width="49" height="49">
<path d="M0 0H48.0208V48.0208H0V0Z" fill="white"/>
</mask>
<g mask="url(#mask0_509_683)">
<path d="M24.0104 0C37.0938 0 48.0208 10.9219 48.0208 24.0104C48.0208 37.0938 37.0938 48.0208 24.0104 48.0208C10.9219 48.0208 0 37.0938 0 24.0104C0 10.9219 10.9219 0 24.0104 0Z" fill="#EBEBEB"/>
</g>
<path fill-rule="evenodd" clip-rule="evenodd" d="M38.8653 18.6979C38.8653 21.3542 36.6309 23.5677 33.9539 23.5677C31.2768 23.5677 29.2664 21.1302 29.2664 18.6979C29.2664 16.0417 31.2768 13.8281 33.9539 13.8281C36.6309 13.8281 38.8653 16.0417 38.8653 18.6979ZM27.7039 24.0104C26.5841 22.2396 24.7976 22.2396 23.683 24.0104L23.4591 24.2292C22.5684 22.901 21.6726 21.3542 21.0059 20.026C19.4434 17.3698 16.9851 17.3698 15.4226 20.026C13.8601 22.6823 11.4018 26.8906 9.83928 29.5469C8.27678 32.2031 9.61532 34.1927 12.7455 34.1927H29.933C32.1674 34.1927 33.0632 32.8646 31.9434 30.875C30.8289 28.8802 29.0424 26.0052 27.7039 24.0104Z" fill="#C0C0C0"/>
</svg>
