<svg width="431" height="243" viewBox="0 0 431 243" fill="none" xmlns="http://www.w3.org/2000/svg">
<mask id="mask0_509_681" style="mask-type:luminance" maskUnits="userSpaceOnUse" x="0" y="0" width="431" height="243">
<path d="M0 0H430.203V242.115H0V0Z" fill="white"/>
</mask>
<g mask="url(#mask0_509_681)">
<path d="M15.0052 0H415.198C423.375 0 430.203 6.82813 430.203 15.0052V227.109C430.203 235.286 423.375 242.115 415.198 242.115H15.0052C6.82813 242.115 0 235.286 0 227.109V15.0052C0 6.82813 6.82813 0 15.0052 0Z" fill="#F7F6F6"/>
</g>
<path fill-rule="evenodd" clip-rule="evenodd" d="M289.995 94.2657C289.995 107.662 278.74 118.823 265.23 118.823C251.725 118.823 241.594 106.547 241.594 94.2657C241.594 80.8698 251.725 69.7084 265.23 69.7084C278.74 69.7084 289.995 80.8698 289.995 94.2657ZM233.714 121.057C228.084 112.125 219.079 112.125 213.454 121.057L212.323 122.172C207.823 115.474 203.318 107.662 199.943 100.964C192.063 87.5678 179.683 87.5678 171.803 100.964C163.922 114.359 151.537 135.568 143.662 148.964C135.782 162.359 142.532 172.401 158.292 172.401H244.969C256.225 172.401 260.73 165.708 255.1 155.662C249.475 145.615 240.469 131.104 233.714 121.057Z" fill="#D6D6D6"/>
</svg>
