<svg width="48" height="48" viewBox="0 0 48 48" fill="none" xmlns="http://www.w3.org/2000/svg">
<mask id="mask0_509_671" style="mask-type:luminance" maskUnits="userSpaceOnUse" x="0" y="0" width="48" height="48">
<path d="M48 48L-6.10948e-07 48L-6.10948e-07 -1.16281e-06L48 -1.16281e-06L48 48Z" fill="white"/>
</mask>
<g mask="url(#mask0_509_671)">
<path d="M48 48L-6.10948e-07 48L-6.10948e-07 -1.16281e-06L48 -1.16281e-06L48 48Z" fill="#fff"/>
</g>
<path d="M28.5586 31.5605C29.1471 30.972 29.1471 30.0293 28.5586 29.4459L22.7357 23.623L28.5586 17.8001C29.1471 17.2116 29.1471 16.2689 28.5586 15.6803C27.9753 15.097 27.0326 15.097 26.444 15.6803L19.5586 22.5709C18.9701 23.1543 18.9701 24.1022 19.5586 24.6855L26.444 31.5762C27.0169 32.1439 27.9753 32.1439 28.5586 31.5605Z" fill="#444444"/>
</svg>
