<svg width="48" height="48" viewBox="0 0 48 48" fill="none" xmlns="http://www.w3.org/2000/svg">
<mask id="mask0_509_684" style="mask-type:luminance" maskUnits="userSpaceOnUse" x="0" y="0" width="48" height="48">
<path d="M0 0H48V48H0V0Z" fill="white"/>
</mask>
<g mask="url(#mask0_509_684)">
<path d="M0 0H48V48H0V0Z" fill="#EBEBEB"/>
</g>
<path d="M25.7604 14.8385L24.7396 12.7813C24.4948 12.2969 24 12 23.4635 12H14.4219C13.6406 12 13 12.6406 13 13.4167V34.6771C13 35.4583 13.6406 36.0938 14.4219 36.0938C15.1979 36.0938 15.8385 35.4583 15.8385 34.6771V26.1771H22.9219L23.9427 28.2292C24.1823 28.7135 24.6823 29.0104 25.2031 29.0104H32.8438C33.625 29.0104 34.2604 28.3698 34.2604 27.5938V16.2552C34.2604 15.474 33.625 14.8385 32.8438 14.8385H25.7604ZM31.4271 26.1771H25.7604L24.3385 23.3385H15.8385V14.8385H22.9219L24.3385 17.6719H31.4271V26.1771Z" fill="#444444"/>
</svg>
