<svg width="48" height="48" viewBox="0 0 48 48" fill="none" xmlns="http://www.w3.org/2000/svg">
<mask id="mask0_509_685" style="mask-type:luminance" maskUnits="userSpaceOnUse" x="0" y="0" width="48" height="48">
<path d="M0 0H48V48H0V0Z" fill="white"/>
</mask>
<g mask="url(#mask0_509_685)">
<path d="M0 0H48V48H0V0Z" fill="#EBEBEB"/>
</g>
<path d="M34.9697 19.7643L28.1104 19.1654L25.4333 12.8633C24.9489 11.7122 23.3031 11.7122 22.8239 12.8633L20.1468 19.181L13.2979 19.7643C12.0531 19.8633 11.5427 21.4206 12.4906 22.2435L17.6937 26.7487L16.1312 33.4414C15.8499 34.6602 17.1677 35.6237 18.2458 34.9727L24.126 31.4258L30.0114 34.9831C31.0843 35.6393 32.4072 34.6758 32.1208 33.457L30.5635 26.7487L35.7614 22.2435C36.7145 21.4206 36.2197 19.8633 34.9697 19.7643ZM24.126 28.7799L18.7979 31.9935L20.2145 25.931L15.5114 21.8477L21.7197 21.306L24.126 15.5977L26.5531 21.3216L32.7614 21.8633L28.0531 25.9414L29.4697 32.0091L24.126 28.7799Z" fill="#444444"/>
</svg>
